<?xml version="1.0" encoding="utf-8"?>
<!-- Generator: Adobe Illustrator 21.0.0, SVG Export Plug-In . SVG Version: 6.00 Build 0)  -->
<svg version="1.1" id="Capa_1" xmlns="http://www.w3.org/2000/svg" xmlns:xlink="http://www.w3.org/1999/xlink" x="0px" y="0px"
	 viewBox="0 0 500 500" style="enable-background:new 0 0 500 500;" xml:space="preserve">
<path d="M48,53.5h404v393H48V53.5z M0,493.8h500V6.2H0V493.8z M353.3,247.8c10.6,0,14.4,0,15.4-0.4c0-1.5,0.4-2.5,0.4-3.5
	c0-11.2-5.4-32-27-32c-20,0-28.5,17.5-30.6,36h41.8V247.8z M311.1,276.3c0.4,28.1,13.7,47,45.4,47c12.3,0,22.9-1.7,33.9-6.4
	c1.5-0.6,2.5-0.4,2.5,1.5v26c0,2.1-0.6,3.1-2.1,4.2c-11,5.4-24.8,7.9-41.8,7.9c-54.9,0-75.5-40.6-75.5-85.7
	c0-49.1,25.4-89.3,70.1-89.3c45.4,0,61.2,38.1,61.2,69.1c0,10-0.6,18.1-1.7,22.1c-0.4,1.7-1,2.3-2.7,2.7c-4.2,0.6-16.4,1.5-34.7,1.5
	h-54.5L311.1,276.3L311.1,276.3z M199.5,255.1c-5.8-23.1-20-73.4-25.2-97.8h-0.4c-4.4,24.3-15.8,65.5-24.3,97.8H199.5L199.5,255.1z
	 M141.1,288.8L124.6,351c-0.4,1.7-1,2.3-3.1,2.3H90.9c-2.1,0-2.5-0.6-2.1-3.1l59.1-206.6c1-3.7,1.7-6.7,2.1-17.1
	c0-1.5,0.6-2.1,1.7-2.1h43.7c1.5,0,2.1,0.4,2.5,2.1L264,350.6c0.4,1.7,0,2.7-1.7,2.7H228c-1.7,0-2.7-0.6-3.1-2.1l-17.1-62.4
	L141.1,288.8L141.1,288.8z"/>
</svg>
