<?xml version="1.0" encoding="utf-8"?>
<!-- Generator: Adobe Illustrator 21.0.0, SVG Export Plug-In . SVG Version: 6.00 Build 0)  -->
<svg version="1.1" id="Capa_1" xmlns="http://www.w3.org/2000/svg" xmlns:xlink="http://www.w3.org/1999/xlink" x="0px" y="0px"
	 viewBox="0 0 500 500" style="enable-background:new 0 0 500 500;" xml:space="preserve">
<g>
	<path d="M72.8,98.1L105,459.8L249.8,500l145.1-40.2l32.3-361.7L72.8,98.1L72.8,98.1z M367.4,437l-117.1,32.2L133.2,437l-27.4-308.8
		h289.1L367.4,437z"/>
	<polygon points="198.6,44.3 166.7,44.3 166.7,23 198.6,23 198.6,0 143.7,0 143.7,67.3 198.6,67.3 	"/>
	<polygon points="276.6,44.9 255.7,23 276.6,23 276.6,0 221.6,0 221.6,23.6 244.6,44.3 221.6,44.3 221.6,67.3 276.6,67.3 	"/>
	<polygon points="356.3,44.9 334.6,23 356.3,23 356.3,0 301.4,0 301.4,23.6 323.4,44.3 301.4,44.3 301.4,67.3 356.3,67.3 	"/>
	<polygon points="249.8,169.4 138.7,169.4 142.7,213.7 250.3,213.7 257.4,213.7 250.3,216.7 146.6,261.1 150.5,305.4 250.3,305.4 
		304.5,305.4 299.6,363.3 250.3,377.1 250.3,377 250,377.1 200.5,363.8 197.2,328.4 152.7,328.4 158.9,398.1 249.9,423.3 
		250.3,423.2 250.3,423.2 341,398 353,261.1 250.3,261.1 357,213.7 360.8,169.4 250.3,169.4 	"/>
</g>
</svg>
