<?xml version="1.0" encoding="utf-8"?>
<!-- Generator: Adobe Illustrator 21.0.0, SVG Export Plug-In . SVG Version: 6.00 Build 0)  -->
<svg version="1.1" id="Capa_1" xmlns="http://www.w3.org/2000/svg" xmlns:xlink="http://www.w3.org/1999/xlink" x="0px" y="0px"
	 viewBox="0 0 500 500" style="enable-background:new 0 0 500 500;" xml:space="preserve">
<g>
	<path d="M109.1,57.8c0.4-3.6,0.8-5.6,0.9-7.5C111.4,7.9,119.6,0,162.5,0C246.3,0,330.2,0,414,0c32.7,0,44.4,11.5,44.4,43.8
		c0,117.1,0,234.3,0,351.4c0,35.4-11.4,46.9-46.5,46.9c-6.2,0-12.4,0-21,0c0,7.3,0.2,13.8,0,20.2c-0.8,23-14.4,37.4-37,37.4
		c-91.6,0.3-183.3,0.3-274.9,0c-23.8-0.1-37-14.9-37.2-40.5c-0.3-41.1-0.1-82.3-0.1-123.4c0-76,0-152,0-228c0-38.4,11.7-50,50.4-50
		C97.2,57.8,102.4,57.8,109.1,57.8z M429.2,220.6c0-58.3-0.3-116.6,0.3-174.8c0.1-12.8-3.6-16.9-16.7-16.9
		c-85.3,0.5-170.7,0.6-256-0.1c-14.2-0.1-17.4,4.8-17.4,17.9c0.4,116,0.4,232.1,0,348.1c-0.1,13.5,4,18,17.8,17.9
		c84.8-0.5,169.6-0.6,254.4,0c14.9,0.1,18.1-5.2,17.9-19C428.8,336.2,429.2,278.4,429.2,220.6z M72.1,88.5c0,6.2,0,11.3,0,16.3
		c0,116.1,0.3,232.2-0.4,348.3c-0.1,15.2,5.1,18,18.8,17.9c84.3-0.5,168.7-0.3,253-0.3c5.1,0,10.2,0,16.9,0
		c0.5-10.2,0.9-18.7,1.4-28.6c-7.6,0-13.2,0-18.8,0c-62.5,0-124.9,0-187.4,0c-32.4,0-45.4-12.9-45.4-45.2c0-97.4,0-194.7,0-292.1
		c0-5.5-0.5-10.9-0.7-16.4C96.4,88.5,85.2,88.5,72.1,88.5z"/>
	<path d="M285,88.6c32.3,0,64.6,0.1,96.9,0c10.4,0,21.3-0.2,21.5,13.8c0.2,13.5-9.8,14.8-20.7,14.8c-65.6-0.2-131.3-0.2-196.9-0.1
		c-10.1,0-19.6-0.7-19.8-13.9c-0.2-14.3,9.9-14.7,20.5-14.7C219.4,88.7,252.2,88.6,285,88.6z"/>
	<path d="M283.4,185.5c-32.3,0-64.6,0-96.9,0c-10.6,0-20.6-1-20.5-15.1c0-13.4,9.7-14.1,19.6-14.1c65.6,0,131.2,0,196.8,0
		c10.7,0,21.2,1.3,20.8,14.9c-0.4,13.2-10.8,14.4-21.5,14.4C349.1,185.4,316.3,185.5,283.4,185.5z"/>
	<path d="M285,253c-32.8,0-65.6,0-98.4,0c-10.4,0-20.9-0.4-20.5-14.8c0.4-14.1,10.8-14.4,21.2-14.4c64.6,0,129.1,0.1,193.7,0
		c11.1,0,22.5,0.7,22.3,15c-0.2,14.7-12.3,14.2-23,14.2C348.6,253,316.8,253,285,253z"/>
	<path d="M285.3,320.6c-33.3,0-66.7-0.1-100,0.1c-10.3,0.1-19.3-1.3-19.3-14.4c0.1-13.1,9.3-14.2,19.5-14.1
		c66.2,0.1,132.3,0.2,198.5-0.1c10.7,0,19.4,2.2,19.5,14.5c0,12.7-9.4,14.2-19.7,14.1C350.9,320.5,318.1,320.6,285.3,320.6z"/>
</g>
</svg>
