<?xml version="1.0" encoding="utf-8"?>
<!-- Generator: Adobe Illustrator 21.0.0, SVG Export Plug-In . SVG Version: 6.00 Build 0)  -->
<svg version="1.1" id="Capa_1" xmlns="http://www.w3.org/2000/svg" xmlns:xlink="http://www.w3.org/1999/xlink" x="0px" y="0px"
	 viewBox="0 0 500 500" style="enable-background:new 0 0 500 500;" xml:space="preserve">
<g>
	<path d="M0,397.1c12.9,0,24.9,0,37.8,0c0-3.5,0-6.7,0-10c0-78.2,0-156.4,0-234.5c0-23.1,13.7-36.7,36.9-36.7c40.9,0,81.8,0,122.8,0
		c1.9,0,3.8,0,7.2,0c-5.9,5.8-10.7,10.9-15.9,15.6c-1.1,1-3.6,0.8-5.5,0.8c-36.4,0-72.8,0-109.1,0c-13.2,0-19.8,6.5-19.8,19.5
		c0,79.6,0,159.1,0,238.7c0,1.9,0,3.8,0,6.4c43.4,0,86.5,0,129.9,0c0.1,2,0.2,3.3,0.2,4.7c0.5,9.4,7.5,16.4,17,16.4
		c30.8,0.1,61.6,0.1,92.3,0c9.4,0,16.3-7.1,16.9-16.6c0.1-1.2,0.1-2.4,0.2-4.2c46,0,91.9,0,138.1,0c0.1-2.1,0.3-3.6,0.3-5.2
		c0-79.4,0-158.8,0-238.2c0-15.9-5.9-21.6-22-21.5c-3.6,0-7.3,0-11.3,0c0-5.5,0-10.6,0-17c8.7,0.6,17.6,0.1,25.9,2.2
		c14.8,3.6,23.9,17,23.9,33.1c0,78.7,0,157.4,0,236.1c0,3.3,0,6.6,0,10.3c11.2,0,22,0,34.3,0c-0.8,13.6-0.2,27-2.8,39.8
		c-2.9,14.2-16.9,23.1-31.9,23.1c-88.8,0-177.7,0-266.5,0c-54.4,0-108.8,0-163.2,0C14.3,459.8,0,445.7,0,424.4
		C0,415.5,0,406.6,0,397.1z"/>
	<path d="M367.4,87c-6-5.9-10.8-10.6-16.6-16.3c-1.1,1.5-2.1,3.5-3.5,4.9c-42,42.1-84.1,84.1-126.1,126.2c-1.1,1.1-2.2,2.3-3.4,3.3
		c-2.7,2.5-5.7,2.8-8.3,0.1c-2.5-2.6-2-5.4,0.4-7.9c1-1,2-2,3-3c42.3-42.3,84.6-84.6,126.9-126.9c1.4-1.4,2.8-3,4.8-5.1
		c-1.8-0.6-2.8-1.2-3.9-1.2c-7.7-0.1-15.4-0.3-23.1,0.1c-2.2,0.1-4.7,2-6.4,3.7c-37.5,37.4-74.9,75-112.3,112.5
		c-1.5,1.5-2.9,3-4.5,4.3c-4.6,3.7-10.8,3.3-14.8-0.6c-4.1-4.1-4.4-10.6-0.5-15.2c1-1.2,2.2-2.3,3.3-3.4
		c39-38.9,78-77.8,116.9-116.8c3.9-3.9,7.9-5.6,13.4-5.5c11.4,0.3,22.7,0.1,34.1,0.1c4.4,0,8,1.3,11.2,4.6
		c11.6,11.9,23.3,23.6,35.2,35.3c3.8,3.8,5.8,8,5.6,13.5c-0.3,10.8,0.3,21.7-0.3,32.5c-0.2,3.8-1.9,8.4-4.5,11.1
		c-39.7,40.2-79.7,80-119.7,120c-5.5,5.5-12,5.9-16.7,1.3c-4.9-4.7-4.5-11.4,1.2-17.1c38.1-37.9,76.1-75.7,114.3-113.5
		c3.4-3.4,5.5-6.7,5-11.8c-0.5-5.4,0-10.8-0.2-16.3c-0.1-1.9-1-3.7-1.5-5.6c-1.6,0.9-3.4,1.6-4.7,2.8c-3.5,3.2-6.7,6.6-10.1,10
		c-39.3,39.3-78.7,78.7-118,118c-1.2,1.2-2.3,3.1-3.8,3.5c-2.2,0.5-5.9,0.9-6.9-0.3c-1.3-1.6-1.1-4.9-0.6-7.3
		c0.3-1.4,2.2-2.6,3.5-3.8C278,175,320.1,132.9,362.3,90.7C363.7,89.1,365.7,88.1,367.4,87z"/>
	<path d="M141.8,303.6c-8.6,0-13.5-6.6-11.5-14.9c1.1-4.6,2.6-9.1,3.9-13.6c7.6-26.1,15.2-52.2,22.9-78.3
		c2.5-8.6,10.7-11.9,17.5-7.3c4.3,2.9,5.8,7.7,4,14c-3.9,13.6-7.6,27.2-12,40.7c-1.7,5.1-1,8.7,3.3,11.7c0.7,0.5,1.3,1.2,1.9,1.8
		c4.1,4,7.7,10,12.5,11.3c4.9,1.3,11-2.1,16.6-3.5c10.8-2.7,21.6-5.5,32.5-8.2c7-1.7,13.1,1.7,14.6,8.1c1.5,6-2.3,12-9.1,13.7
		c-31.3,8-62.5,15.9-93.8,23.9C143.9,303.4,142.5,303.5,141.8,303.6z"/>
</g>
</svg>
