<?xml version="1.0" encoding="utf-8"?>
<!-- Generator: Adobe Illustrator 21.0.0, SVG Export Plug-In . SVG Version: 6.00 Build 0)  -->
<svg version="1.1" id="Capa_1" xmlns="http://www.w3.org/2000/svg" xmlns:xlink="http://www.w3.org/1999/xlink" x="0px" y="0px"
	 viewBox="0 0 500 500" style="enable-background:new 0 0 500 500;" xml:space="preserve">
<g>
	<path d="M431.6,446.1H67.9l-2.2-0.7c-0.1,0-0.2-0.1-0.4-0.1c-30.3-4.4-54.9-26.3-62.8-56c-0.7-2.6-1.2-5.1-1.7-7.4
		c-0.2-0.9-0.4-1.9-0.6-2.8L0,377.5V182l0.9-2.4c3-18.8,11.9-34.5,26.5-46.9c14.2-12,31.1-18,50.5-18l0,0c15.4,0,30.8,0,46.1,0h8.9
		c7.7-35.9,38.4-60.8,75.5-60.8c26.6,0,54.9,0,83.5,0c3.3,0,6.7,0.2,10,0.6c31.3,3.6,58,27.6,64.9,58.3c0.1,0.6,0.3,1.3,0.4,1.9h4.9
		c16.5,0,33,0,49.6,0c2.9,0,6.8,0.1,10.8,0.5c38.6,4.5,67.6,37.2,67.7,76c0,64.5,0,129.3,0,178.5c0,3.8-0.2,6.9-0.7,9.9
		c-4.6,29.7-21.8,51-49.7,61.8c-4.3,1.6-8.4,2.5-12.1,3.3c-1.4,0.3-2.8,0.6-4,0.9L431.6,446.1z M66.6,445.5L66.6,445.5L66.6,445.5z
		 M72.6,414.8h355.3c1.1-0.2,2.1-0.5,3.1-0.7c2.8-0.6,5.4-1.1,7.3-1.9c17.6-6.8,27.2-18.7,30.1-37.4c0.2-1.3,0.3-2.9,0.3-5.1
		c0-49.2,0-113.9,0-178.4c0-23-17.2-42.3-40-45c-2.4-0.3-5.1-0.3-7.2-0.3c-16.5,0-33,0-49.5,0h-31.8l-2-13.3
		c-0.3-1.7-0.5-3.3-0.7-4.9c-0.4-2.9-0.7-5.7-1.3-8.1c-4-17.7-19.9-32-38-34.1c-2.2-0.2-4.3-0.4-6.5-0.4c-28.5,0-56.9,0-83.4,0
		c-22.7,0-41.3,15.6-45.3,37.9c-0.3,1.4-0.4,3.1-0.6,5.1c-0.1,1.2-0.2,2.4-0.3,3.7l-1.4,14.1h-36.8c-15.4,0-30.8,0-46.1,0l0,0
		c-11.9,0-21.8,3.5-30.3,10.6c-9.1,7.7-14.3,17.2-15.9,29c-0.1,0.6-0.2,1.2-0.3,1.8v186.8c0.1,0.5,0.2,1,0.3,1.6
		c0.4,2,0.8,3.8,1.2,5.5c4.7,17.6,19.9,30.9,37.8,33.2C71.3,414.6,72,414.7,72.6,414.8z"/>
	<path d="M250.1,388.3c59.4-0.1,107.7-48.5,107.6-107.9c-0.1-59.6-48.3-107.7-107.8-107.6c-59.5,0-107.7,48.4-107.6,107.8
		C142.4,340,190.8,388.4,250.1,388.3z M249.9,341.4c-33.7-0.1-61-27.4-60.9-61.1s27.5-60.9,61.2-60.8c33.5,0.1,60.7,27.6,60.6,61.2
		C310.8,314.3,283.5,341.5,249.9,341.4z"/>
</g>
</svg>
