<?xml version="1.0" encoding="utf-8"?>
<!-- Generator: Adobe Illustrator 21.0.0, SVG Export Plug-In . SVG Version: 6.00 Build 0)  -->
<svg version="1.1" id="Capa_1" xmlns="http://www.w3.org/2000/svg" xmlns:xlink="http://www.w3.org/1999/xlink" x="0px" y="0px"
	 viewBox="0 0 500 500" style="enable-background:new 0 0 500 500;" xml:space="preserve">
<g>
	<path d="M250,98H72.4l33.3,361.1L250,500l144.3-40.9L427.6,98H250z M366.9,436.3L250,469.4l0,0l-116.9-33.1l-28.5-308.9H250l0,0
		h145.3L366.9,436.3z"/>
	<polygon points="362.9,67.4 394.5,67.4 394.5,44.7 362.9,44.7 362.9,0 340.3,0 340.3,67.4 346,67.4 	"/>
	<polygon points="200.9,67.4 223.6,67.4 223.6,22.7 243.3,22.7 243.3,0 181.2,0 181.2,22.7 200.9,22.7 	"/>
	<polygon points="275.1,33.8 290.7,58 290.8,58.1 290.8,58 306.8,33.1 306.8,67.4 328.8,67.4 328.8,0 327.2,0 306.8,0 304.8,0 
		290.8,23.1 276.7,0 275.1,0 254.2,0 253.2,0 253.2,67.4 275.1,67.4 	"/>
	<polygon points="128.1,45.1 148.6,45.1 148.6,67.4 171.2,67.4 171.2,0 148.6,0 148.6,22.4 128.1,22.4 128.1,0 105.4,0 105.4,67.4 
		128.1,67.4 	"/>
	<polygon points="250,171.7 250,171.7 217.4,171.7 138.2,171.7 150.7,306.9 151,306.1 205.8,306.1 250,306.1 250,306.1 278.9,306.1 
		303.7,306.1 298.7,363.3 264.4,373.1 264.4,373.1 250,377.3 200.6,363.1 197.6,328.4 152.7,328.4 159.1,397.6 250,423.4 250,423.3 
		250,423.4 250,423.4 264.4,419.3 264.4,419.3 340.9,397.6 353.4,261.9 278.9,261.9 250,261.9 250,261.9 205.8,261.9 191.4,261.9 
		187.2,216.6 217.4,216.6 250,216.6 250,216.6 274.8,216.6 357.6,216.6 361.7,171.7 274.8,171.7 	"/>
</g>
</svg>
