<?xml version="1.0" encoding="utf-8"?>
<!-- Generator: Adobe Illustrator 21.0.0, SVG Export Plug-In . SVG Version: 6.00 Build 0)  -->
<svg version="1.1" id="Capa_1" xmlns="http://www.w3.org/2000/svg" xmlns:xlink="http://www.w3.org/1999/xlink" x="0px" y="0px"
	 viewBox="0 0 500 500" style="enable-background:new 0 0 500 500;" xml:space="preserve">
<g>
	<g>
		<path d="M242,190.4l2.9,116.2l13.8,154.7l108.5,30.1l108.7-30.1L500,190.4H264.8H242z M455.3,444.1l-87.7,24.1l-87.7-24.1
			l-20.6-231.2h216.5L455.3,444.1z"/>
		<polygon points="328.8,150 304.9,150 304.9,134 328.8,134 328.8,116.8 287.7,116.8 287.7,167.3 328.8,167.3 		"/>
		<polygon points="387.2,150.5 371.5,134 387.2,134 387.2,116.8 346,116.8 346,134.6 363.2,150 346,150 346,167.3 387.2,167.3 		"/>
		<polygon points="446.9,150.5 430.6,134 446.9,134 446.9,116.8 405.7,116.8 405.7,134.6 422.2,150 405.7,150 405.7,167.3 
			446.9,167.3 		"/>
		<polygon points="367.2,243.7 284,243.7 286.9,276.9 367.5,276.9 372.8,276.9 367.5,279.1 289.8,312.4 292.8,345.6 367.5,345.6 
			408.1,345.6 404.5,389 367.5,399.3 367.5,399.2 367.3,399.3 330.2,389.3 327.7,362.8 294.4,362.8 299,415 367.2,433.8 
			367.5,433.8 367.5,433.8 435.5,414.9 444.4,312.4 367.5,312.4 447.4,276.9 450.3,243.7 367.5,243.7 		"/>
	</g>
	<g>
		<path d="M133.1,82.1H0l25,270.5l108.1,30.6l108.1-30.6l25-270.5C266.1,82.1,133.1,82.1,133.1,82.1z M220.5,335.5l-87.6,24.8l0,0
			l-87.6-24.8L24.1,104.1h108.9l0,0h108.8L220.5,335.5z"/>
		<polygon points="217.5,59.2 241.2,59.2 241.2,42.2 217.5,42.2 217.5,8.7 200.6,8.7 200.6,59.2 204.9,59.2 		"/>
		<polygon points="96.3,59.2 113.3,59.2 113.3,25.7 128,25.7 128,8.7 81.5,8.7 81.5,25.7 96.3,25.7 		"/>
		<polygon points="151.9,34 163.4,52.2 163.6,52.2 163.6,52.2 175.6,33.4 175.6,59.2 192,59.2 192,8.7 190.9,8.7 175.6,8.7 
			174.1,8.7 163.6,26 153,8.7 151.9,8.7 136.1,8.7 135.4,8.7 135.4,59.2 151.9,59.2 		"/>
		<polygon points="41.8,42.5 57.1,42.5 57.1,59.2 74,59.2 74,8.7 57.1,8.7 57.1,25.5 41.8,25.5 41.8,8.7 24.8,8.7 24.8,59.2 
			41.8,59.2 		"/>
		<polygon points="133.1,137.3 133.1,137.3 108.6,137.3 49.3,137.3 58.7,238.5 58.9,237.9 99.9,237.9 133.1,237.9 133.1,237.9 
			154.6,237.9 173.2,237.9 169.5,280.7 143.8,288.1 143.8,288.1 133.1,291.3 96,280.6 93.7,254.6 60.1,254.6 64.9,306.5 
			133.1,325.8 133.1,325.7 133.1,325.8 133.1,325.8 143.8,322.7 143.8,322.7 201.1,306.5 210.4,204.9 154.6,204.9 133.1,204.9 
			133.1,204.9 99.9,204.9 89.2,204.9 86,170.9 108.6,170.9 133.1,170.9 133.1,170.9 151.5,170.9 213.6,170.9 216.7,137.3 
			151.5,137.3 		"/>
	</g>
</g>
</svg>
