<?xml version="1.0" encoding="utf-8"?>
<!-- Generator: Adobe Illustrator 21.0.0, SVG Export Plug-In . SVG Version: 6.00 Build 0)  -->
<svg version="1.1" id="Capa_1" xmlns="http://www.w3.org/2000/svg" xmlns:xlink="http://www.w3.org/1999/xlink" x="0px" y="0px"
	 viewBox="0 0 500 500" style="enable-background:new 0 0 500 500;" xml:space="preserve">
<path d="M48,53.5h404v393H48V53.5z M0,493.8h500V6.2H0V493.8z M231.5,248.5c-5.8-23.1-19.6-73.5-24.8-97.9h-0.4
	c-4.4,24.4-15.4,65.6-24.2,97.9H231.5L231.5,248.5z M327.5,180c0-1.7,0.6-2.5,2.5-2.5h32.7c1.7,0,2.5,0.6,2.5,2.5v164.4
	c0,1.7-0.4,2.5-2.5,2.5h-32.3c-2.1,0-2.7-1-2.7-2.7V180H327.5L327.5,180z M325.2,132.7c0-13.3,9.4-21.2,21.3-21.2
	c12.7,0,21.2,8.5,21.2,21.2c0,13.7-9,21.2-21.7,21.2C334,154,325.2,146.5,325.2,132.7z M173.5,282.3L157,344.8
	c-0.4,1.7-1,2.1-3.1,2.1h-30.6c-2.1,0-2.5-0.6-2.1-3.1l59.2-207.1c1-3.7,1.7-7.1,2.1-17.3c0-1.5,0.6-2.1,1.7-2.1H228
	c1.5,0,2.1,0.4,2.5,2.1l66.2,224.8c0.4,1.7,0,2.7-1.7,2.7h-34.6c-1.7,0-2.7-0.4-3.1-1.9l-17.1-62.7H173.5L173.5,282.3z"/>
</svg>
