<?xml version="1.0" encoding="utf-8"?>
<!-- Generator: Adobe Illustrator 21.0.0, SVG Export Plug-In . SVG Version: 6.00 Build 0)  -->
<svg version="1.1" id="Capa_1" xmlns="http://www.w3.org/2000/svg" xmlns:xlink="http://www.w3.org/1999/xlink" x="0px" y="0px"
	 viewBox="0 0 500 500" style="enable-background:new 0 0 500 500;" xml:space="preserve">
<g>
	<path d="M441.8,92c-11.1-10.9-20.1-19.7-30.9-30.4c-2,2.8-3.8,6.4-6.6,9.2c-78.2,78.3-156.4,156.5-234.7,234.8
		c-2.1,2.1-4.1,4.2-6.2,6.2c-5.1,4.6-10.6,5.3-15.5,0.1c-4.6-4.9-3.7-10.1,0.8-14.7c1.8-1.9,3.7-3.7,5.5-5.6
		c78.7-78.7,157.4-157.4,236-236.2c2.7-2.7,5.2-5.5,8.9-9.4c-3.4-1.1-5.3-2.2-7.2-2.2c-14.3-0.2-28.7-0.6-42.9,0.2
		c-4.1,0.2-8.7,3.8-11.9,7C267.3,120.7,197.7,190.5,128,260.3c-2.8,2.8-5.4,5.7-8.5,8.1c-8.6,6.8-20.2,6.2-27.5-1.2
		c-7.7-7.7-8.1-19.7-1-28.3c1.9-2.2,4-4.2,6.1-6.3c72.6-72.4,145.2-144.7,217.6-217.4c7.3-7.3,14.7-10.5,25-10.2
		c21.1,0.6,42.3,0.3,63.5,0.1c8.2-0.1,14.9,2.4,20.9,8.5c21.6,22.1,43.4,44,65.4,65.7c7.2,7.1,10.7,14.8,10.5,25.1
		c-0.5,20.2,0.5,40.4-0.6,60.5c-0.4,7.1-3.5,15.7-8.4,20.6c-73.9,74.7-148.4,149-222.7,223.3c-10.2,10.2-22.2,11-31.1,2.5
		c-9.1-8.7-8.3-21.3,2.3-31.8c70.8-70.5,141.6-141,212.7-211.2c6.4-6.3,10.3-12.4,9.3-21.9c-1-10,0.1-20.2-0.3-30.2
		c-0.1-3.5-1.9-6.9-2.9-10.4c-2.9,1.7-6.3,2.9-8.7,5.2c-6.5,6-12.5,12.3-18.7,18.6C357.7,202.8,284.5,276,211.4,349.1
		c-2.3,2.3-4.4,5.8-7.1,6.5c-4.2,1-10.9,1.7-12.8-0.6c-2.4-3-2-9.2-1.2-13.6c0.5-2.7,4.2-4.8,6.5-7.1
		c78.5-78.5,156.9-157,235.5-235.3C434.9,95.9,438.7,94.2,441.8,92z"/>
	<path d="M22.2,495.1C6.1,495-2.9,482.8,0.8,467.4c2.1-8.5,4.8-16.8,7.3-25.3c14.2-48.6,28.3-97.2,42.6-145.8
		c4.7-16,20-22.1,32.6-13.5c8,5.4,10.8,14.4,7.4,26.1c-7.2,25.3-14.2,50.6-22.3,75.6c-3.1,9.5-1.9,16.1,6.1,21.8
		c1.3,0.9,2.3,2.2,3.5,3.4c7.7,7.4,14.3,18.6,23.3,21c9.1,2.4,20.5-3.9,30.9-6.5c20.2-5,40.3-10.3,60.4-15.3
		c13-3.2,24.3,3.2,27.3,15.1c2.8,11.2-4.3,22.3-16.9,25.5c-58.2,14.9-116.4,29.6-174.6,44.4C26,494.7,23.4,494.9,22.2,495.1z"/>
</g>
</svg>
