<?xml version="1.0" encoding="utf-8"?>
<!-- Generator: Adobe Illustrator 21.0.0, SVG Export Plug-In . SVG Version: 6.00 Build 0)  -->
<svg version="1.1" id="Capa_1" xmlns="http://www.w3.org/2000/svg" xmlns:xlink="http://www.w3.org/1999/xlink" x="0px" y="0px"
	 viewBox="0 0 500 500" style="enable-background:new 0 0 500 500;" xml:space="preserve">
<path d="M48,53.5h404v393H48V53.5z M0,493.8h500V6.2H0V493.8z M316.3,208.7c-3.1-1.5-7.3-2.1-12.3-2.1c-26.9,0-45.6,20.6-45.6,55
	c0,39.2,19.2,55,43.1,55c5.2,0,10.6-0.6,14.8-2.5V208.7L316.3,208.7z M305.2,174.8c4.4,0,6.9,0,11,0.4v-55.4c0-1.5,1-2.1,2.1-2.1
	h33.8c1.7,0,2.1,0.6,2.1,1.7v194.8c0,5.8,0,13.1,1,21c0,1.5-0.4,1.7-1.9,2.5c-17.9,8.5-36.9,12.3-54.6,12.3c-46,0-79-28.5-79-86.7
	C219.6,213.5,252.5,174.8,305.2,174.8z M182.9,344.2c0,2.1-0.4,2.7-2.7,2.7h-32.1c-2.1,0-2.7-1-2.7-2.7V120.4c0-2.1,1-2.7,2.7-2.7
	h32.3c1.7,0,2.5,0.6,2.5,2.5L182.9,344.2L182.9,344.2z"/>
</svg>
