<?xml version="1.0" encoding="utf-8"?>
<!-- Generator: Adobe Illustrator 21.0.0, SVG Export Plug-In . SVG Version: 6.00 Build 0)  -->
<svg version="1.1" id="Capa_1" xmlns="http://www.w3.org/2000/svg" xmlns:xlink="http://www.w3.org/1999/xlink" x="0px" y="0px"
	 viewBox="0 0 105.6 133.7" style="enable-background:new 0 0 105.6 133.7;" xml:space="preserve">
<style type="text/css">
	.st0{fill:#FFFFFF;}
	.st1{display:none;}
</style>
<g id="Capa_1_1_">
	<g>
		<g>
			<g>
				<path class="st0" d="M34.3,55.3v30.4v2.5c-2.4-1.4-5.2-2.3-8.2-2.3c-5.6,0-10.6,2.9-13.3,7.2c-1.4,2.2-2.2,4.9-2.2,7.7
					c0,1.5,0.2,3,0.7,4.4c1.6-4.4,6-7.6,11.2-7.6c6.4,0,11.5,4.8,11.9,10.8c0,0.2,0,0.4,0,0.6s0,0.4,0,0.6c-0.1,1.5-0.3,3-0.8,4.3
					c-2.2,6.7-8.7,11.5-16.4,11.5C7.7,125.5,0,118.1,0,109c0,13.6,11.6,24.7,25.8,24.7c3,0,5.8-0.5,8.5-1.4
					c5.5-1.8,10.1-5.4,13.2-9.9V95.6V45.1L34.3,55.3z"/>
				<path class="st0" d="M35.1,0c-0.1,1.6-1,3.6-2.6,5.6c-1.4,1.9-3.3,3.8-5.6,5.6c-1.5,1.2-3,2.2-4.5,3c-0.1,0-0.1,0.1-0.2,0.1
					c-2.3,1.3-4.1,3.2-5.3,5.4c-0.6,1-1,2.1-1.2,3.3c-0.2,0.9-0.3,1.8-0.3,2.7c0,3.5,1.4,6.8,3.8,9.2c-0.2-0.6-0.3-1.3-0.3-1.9
					c-0.3-4.5,2.5-8.7,6.9-11.3c0.1-0.1,0.2-0.1,0.4-0.2c1-0.6,2.1-1.3,3.1-2.1c1.3-1,2.4-2.1,3.4-3.2c0.7-0.8,1.4-1.6,1.9-2.6
					c0.1-0.1,0.2-0.3,0.2-0.4c0.6-1.1,1-2.1,1.2-3c0.4-1.3,0.5-2.6,0.5-3.9C36.6,4.1,36,1.9,35.1,0z"/>
				<path class="st0" d="M26.1,37c-3.8,0-7.3,1.1-10.2,3v28.9v14.7c2.9-1.9,6.4-3,10.2-3c1.2,0,2.4,0.1,3.6,0.3v-9.4V37.4
					C28.5,37.1,27.3,37,26.1,37z"/>
				<path class="st0" d="M102.7,8.4C100,11.5,96.5,14,92.3,16c-5,2.3-10.9,3.6-17.2,3.6c-5.1,0-9.9-0.9-14.1-2.4
					c-0.3-0.1-0.7-0.3-1-0.4c-2.5-0.9-5.2-1.4-8.1-1.4c-1.5,0-2.9,0.1-4.3,0.4c-8,1.4-14.7,6.6-17.8,13.7c4.3-3.7,10.7-6,17.9-6
					c4.1,0,8,0.8,11.4,2.1c0.5,0.2,1.1,0.5,1.6,0.7c3.9,1.6,8.2,2.5,12.8,2.5h0.1c7.1,0,13.6-2,18.8-5.5v13.4V54v3.2
					c-1,7.1-8.7,12.7-18.1,12.7c-7.8,0-14.4-3.8-17-9.2c-0.7-1.5-1.2-3.1-1.2-4.8l0,0c0,1.7,0.3,3.3,0.7,4.9
					c2.7,9.3,12.5,16.3,24.1,16.3c4.2,0,8.1-0.9,11.5-2.5c7.2-3.3,12.3-9.5,13.2-16.8v-4.4V4.5C104.7,5.9,103.8,7.2,102.7,8.4z"/>
			</g>
			<ellipse class="st0" cx="22.8" cy="109" rx="7" ry="6.8"/>
		</g>
	</g>
</g>
<g id="Capa_2" class="st1">
</g>
<g id="Capa_3">
</g>
</svg>
