<?xml version="1.0" encoding="utf-8"?>
<!-- Generator: Adobe Illustrator 21.0.0, SVG Export Plug-In . SVG Version: 6.00 Build 0)  -->
<svg version="1.1" id="Capa_1" xmlns="http://www.w3.org/2000/svg" xmlns:xlink="http://www.w3.org/1999/xlink" x="0px" y="0px"
	 viewBox="0 0 549.6 133.8" style="enable-background:new 0 0 549.6 133.8;" xml:space="preserve">
<style type="text/css">
	.st0{fill:#FFFFFF;}
	.st1{display:none;}
</style>
<g id="Capa_1_1_">
	<g>
		<g>
			<path class="st0" d="M142.2,49v49.2h-11.1V49H142.2z"/>
			<path class="st0" d="M165.2,67.9c-2.5,0-4.4,0.8-4.4,2.8c0,5.7,20,2.8,19.9,16.2c0,7.7-6.8,11.8-15.4,11.8
				c-6.1,0-12.1-1.8-16.4-5.3l3.5-7.3c3.9,3,9,4.7,13.1,4.7c2.7,0,4.8-0.9,4.8-3c0-6-19.6-2.8-19.6-16.1c0-7.8,6.7-11.8,14.9-11.8
				c5.2,0,10.5,1.5,14.8,4.2l-3.7,7.4C172.6,69.2,168.4,67.9,165.2,67.9z"/>
			<path class="st0" d="M209.9,98.2v-4.4c-2.5,3.2-6.6,4.9-11.9,4.9c-8.1,0-13-4.9-13-11.8c0-7.1,5.1-11.3,14.4-11.4h10.4v-0.7
				c0-4-2.7-6.3-7.9-6.3c-3.4,0-7.3,1.1-11.2,3.3l-3.4-7.4c5.6-2.8,10.5-4.4,17.1-4.4c10.1,0,16,5.1,16,13.6l0.1,24.7L209.9,98.2
				L209.9,98.2z M209.8,85.3v-3.4h-8.5c-4.1,0-6.2,1.3-6.2,4.3c0,2.9,2.2,4.8,5.9,4.8C205.6,91,209.2,88.5,209.8,85.3z"/>
			<path class="st0" d="M251.8,98.2v-4.4c-2.5,3.2-6.6,4.9-11.9,4.9c-8.1,0-13-4.9-13-11.8c0-7.1,5.1-11.3,14.4-11.4h10.4v-0.7
				c0-4-2.7-6.3-7.9-6.3c-3.4,0-7.3,1.1-11.2,3.3l-3.4-7.4c5.6-2.8,10.5-4.4,17.1-4.4c10.1,0,16,5.1,16,13.6l0.1,24.7L251.8,98.2
				L251.8,98.2z M251.7,85.3v-3.4h-8.5c-4.1,0-6.2,1.3-6.2,4.3c0,2.9,2.2,4.8,5.9,4.8C247.5,91,251.1,88.5,251.7,85.3z"/>
			<path class="st0" d="M288.3,69.3c-5.3,0-9,4.1-9,10.1c0,6.1,3.7,10.3,9,10.3c3.9,0,6.9-1.5,8.8-4.4l7.4,5.1
				c-3.2,5.3-9.1,8.4-16.8,8.4c-11.5,0-19.3-7.7-19.3-19.2c0-11.6,7.8-19.4,19.4-19.4c7.2,0,13,2.9,16.4,7.9l-7.3,5.3
				C294.9,70.7,292,69.2,288.3,69.3z"/>
			<path class="st0" d="M373.1,66.1c0,11.5-7.2,18.1-19.7,18.1h-9.8v14.1h-11.1V49h20.9C366,49,373.1,55.2,373.1,66.1z M362.6,66.5
				c0-5.5-3.5-8.2-9.7-8.2h-9.2V75h9.2C359.1,74.9,362.6,72.1,362.6,66.5z"/>
			<path class="st0" d="M390.8,60.4v37.8H380V60.4H390.8z M390.7,49.7c0,3.1-2.2,5.4-5.3,5.4s-5.3-2.3-5.3-5.4
				c0-3.2,2.2-5.4,5.3-5.4S390.7,46.5,390.7,49.7z"/>
			<path class="st0" d="M439,74.5v23.8h-10.8V77.6c0-4.8-2.8-7.7-7.4-7.7c-5.4,0.1-8.6,4.1-8.6,9.7v18.6h-10.8V60.4h10.8V67
				c2.7-4.7,7.2-7,13.1-7C433.6,60,439,65.6,439,74.5z"/>
			<path class="st0" d="M483.1,82.6H456c1.3,4.8,4.9,7.6,9.8,7.6c3.6,0,7-1.4,9.6-4L481,92c-3.8,4.2-9.3,6.7-16.2,6.7
				c-12.1,0-19.7-7.7-19.7-19.2c0-11.7,7.9-19.4,19.5-19.4C477.8,60.1,484,68.9,483.1,82.6z M473,76.2c-0.1-5-3.4-8.2-8.4-8.2
				c-4.8,0-8,3.2-8.9,8.2H473z"/>
			<path class="st0" d="M501.4,46.1v52.1h-10.8V46.1H501.4z"/>
			<path class="st0" d="M549.6,79.3c0,11.5-8.2,19.3-20.2,19.3c-12.2,0-20.3-7.8-20.3-19.3c0-11.6,8.2-19.3,20.3-19.3
				C541.4,60.1,549.6,67.7,549.6,79.3z M519.8,79.5c0,6.2,3.9,10.4,9.5,10.4s9.4-4.2,9.4-10.4c0-6.2-3.9-10.4-9.4-10.4
				C523.7,69.1,519.8,73.3,519.8,79.5z"/>
		</g>
		<g>
			<g>
				<path class="st0" d="M34.3,55.3v30.4v2.5c-2.4-1.4-5.2-2.3-8.2-2.3c-5.6,0-10.6,2.9-13.3,7.2c-1.4,2.2-2.2,4.9-2.2,7.7
					c0,1.5,0.2,3,0.7,4.4c1.6-4.4,6-7.6,11.2-7.6c6.4,0,11.5,4.8,11.9,10.8c0,0.2,0,0.4,0,0.6s0,0.4,0,0.6c-0.1,1.5-0.3,3-0.8,4.3
					c-2.2,6.7-8.7,11.5-16.4,11.5C7.7,125.5,0,118.1,0,109c0,13.6,11.6,24.7,25.8,24.7c3,0,5.8-0.5,8.5-1.4
					c5.5-1.8,10.1-5.4,13.2-9.9V95.6V45.1L34.3,55.3z"/>
				<path class="st0" d="M35.1,0c-0.1,1.6-1,3.6-2.6,5.6c-1.4,1.9-3.3,3.8-5.6,5.6c-1.5,1.2-3,2.2-4.5,3c-0.1,0-0.1,0.1-0.2,0.1
					c-2.3,1.3-4.1,3.2-5.3,5.4c-0.6,1-1,2.1-1.2,3.3c-0.2,0.9-0.3,1.8-0.3,2.7c0,3.5,1.4,6.8,3.8,9.2c-0.2-0.6-0.3-1.3-0.3-1.9
					c-0.3-4.5,2.5-8.7,6.9-11.3c0.1-0.1,0.2-0.1,0.4-0.2c1-0.6,2.1-1.3,3.1-2.1c1.3-1,2.4-2.1,3.4-3.2c0.7-0.8,1.4-1.6,1.9-2.6
					c0.1-0.1,0.2-0.3,0.2-0.4c0.6-1.1,1-2.1,1.2-3c0.4-1.3,0.5-2.6,0.5-3.9C36.6,4.1,36,1.9,35.1,0z"/>
				<path class="st0" d="M26.1,37c-3.8,0-7.3,1.1-10.2,3v28.9v14.7c2.9-1.9,6.4-3,10.2-3c1.2,0,2.4,0.1,3.6,0.3v-9.4V37.4
					C28.5,37.1,27.3,37,26.1,37z"/>
				<path class="st0" d="M102.7,8.4C100,11.5,96.5,14,92.3,16c-5,2.3-10.9,3.6-17.2,3.6c-5.1,0-9.9-0.9-14.1-2.4
					c-0.3-0.1-0.7-0.3-1-0.4c-2.5-0.9-5.2-1.4-8.1-1.4c-1.5,0-2.9,0.1-4.3,0.4c-8,1.4-14.7,6.6-17.8,13.7c4.3-3.7,10.7-6,17.9-6
					c4.1,0,8,0.8,11.4,2.1c0.5,0.2,1.1,0.5,1.6,0.7c3.9,1.6,8.2,2.5,12.8,2.5h0.1c7.1,0,13.6-2,18.8-5.5v13.4V54v3.2
					c-1,7.1-8.7,12.7-18.1,12.7c-7.8,0-14.4-3.8-17-9.2c-0.7-1.5-1.2-3.1-1.2-4.8l0,0c0,1.7,0.3,3.3,0.7,4.9
					c2.7,9.3,12.5,16.3,24.1,16.3c4.2,0,8.1-0.9,11.5-2.5c7.2-3.3,12.3-9.5,13.2-16.8v-4.4V4.5C104.7,5.9,103.8,7.2,102.7,8.4z"/>
			</g>
			<ellipse class="st0" cx="22.8" cy="109" rx="7" ry="6.8"/>
		</g>
	</g>
</g>
<g id="Capa_2" class="st1">
</g>
<g id="Capa_3">
</g>
</svg>
