<?xml version="1.0" encoding="utf-8"?>
<!-- Generator: Adobe Illustrator 21.0.0, SVG Export Plug-In . SVG Version: 6.00 Build 0)  -->
<svg version="1.1" id="Capa_1" xmlns="http://www.w3.org/2000/svg" xmlns:xlink="http://www.w3.org/1999/xlink" x="0px" y="0px"
	 viewBox="0 0 500 500" style="enable-background:new 0 0 500 500;" xml:space="preserve">
<path d="M48,53.5h404v393H48V53.5z M0,493.8h500V6.2H0V493.8z M337.1,206.2c-16.5,0-22.1,8.3-22.1,15.2c0,7.5,3.7,12.7,25.8,24.2
	c32.7,15.8,42.9,31,42.9,53.3c0,33.3-25.4,51.2-59.8,51.2c-18.1,0-33.8-3.8-42.7-9c-1.5-0.6-1.7-1.7-1.7-3.3v-30.6
	c0-2.1,1-2.7,2.5-1.7c13.1,8.5,28.1,12.3,41.9,12.3c16.5,0,23.3-6.9,23.3-16.3c0-7.5-4.8-14.2-25.8-25
	c-29.6-14.2-41.9-28.5-41.9-52.5c0-26.9,21-49.2,57.5-49.2c17.9,0,30.4,2.7,37.3,5.8c1.7,1,2.1,2.7,2.1,4.2v28.5
	c0,1.7-1,2.7-3.1,2.1C364.2,209.8,350.6,206.2,337.1,206.2L337.1,206.2z M157.9,231c4.8,0.4,8.5,0.4,16.9,0.4
	c24.4,0,47.3-8.5,47.3-41.7c0-26.5-16.5-39.8-44.2-39.8c-8.3,0-16.3,0.4-20,0.6V231L157.9,231z M120.8,120.4c0-1.5,2.9-2.5,4.6-2.5
	c13.3-0.6,33.1-1,53.8-1c57.7,0,80.2,31.7,80.2,72.1c0,52.9-38.3,75.6-85.4,75.6c-7.9,0-10.6-0.4-16.3-0.4v80c0,1.7-0.6,2.5-2.5,2.5
	h-31.9c-1.7,0-2.5-0.6-2.5-2.5L120.8,120.4L120.8,120.4z"/>
</svg>
